PathFileType	4	(X/Y/Z)	C:/Users/beibeiliu/ov580/test_trc/capture2\sequence.31_training_dense_right.trc
DataRate	CameraRate	NumFrames	NumMarkers	Units	OrigDataRate	OrigDataStartFrame	OrigNumFrames
120	120	10	19	mm	120	301	400
Frame#	Time	ThumbCMC			ThumbMCP			ThumbIP			ThumbTip			IndexMCP			IndexPIP			IndexTip			MiddleMCP			MiddlePIP			MiddleTip			RingMCP			RingPIP			RingTip			PinkyMCP			PinkyPIP			PinkyTip			BackHand1			BackHand2			BackHand3	
		X0	Y0	Z0	X1	Y1	Z1	X2	Y2	Z2	X3	Y3	Z3	X4	Y4	Z4	X5	Y5	Z5	X6	Y6	Z6	X7	Y7	Z7	X8	Y8	Z8	X9	Y9	Z9	X10	Y10	Z10	X11	Y11	Z11	X12	Y12	Z12	X13	Y13	Z13	X14	Y14	Z14	X15	Y15	Z15	X16	Y16	Z16	X17	Y17	Z17	X18	Y18	Z18	
300	2.5	99.5979	-1.65132	36.2077	92.3729	-19.1656	4.49116	91.1011	-21.4347	-25.3573	102.239	-17.5988	-44.7795	97.1564	40.3453	-27.8421	96.7889	26.1198	-54.8659	106.471	-7.22557	-53.2093	119.497	47.0763	-33.0133	119.194	33.8571	-60.011	129.143	-2.62961	-63.455	142.717	45.9481	-28.0974	144.619	36.2514	-57.2027	141.037	9.23259	-70.6964	168.306	39.0581	-20.147	176.619	36.6551	-44.379	181.141	35.4688	-64.593	142.337	42.943	23.7757	144.857	33.7041	52.2804	111.608	34.0458	38.9342	
301	2.50833	95.0796	-3.77422	36.2833	94.7574	-17.1511	3.43541	90.6269	-22.5331	-23.8132	103.4	-15.0074	-48.102	95.584	38.7542	-28.3569	96.9675	20.1628	-53.6439	110.362	-10.025	-43.5278	120.509	49.3728	-34.8174	119.956	34.0822	-62.0217	127.616	-1.78112	-65.3511	140.06	47.6825	-30.3989	141.318	39.9054	-56.5709	137.612	9.94976	-72.2333	163.196	40.4877	-21.6028	172.517	37.0487	-41.353	179.586	33.4063	-71.3757	144.067	41.5267	25.8258	146.218	33.4468	55.6173	115.363	35.478	35.7311	
302	2.51667	98.8543	-1.68633	34.6639	95.5374	-15.826	4.53713	91.7166	-19.5724	-23.2726	102.118	-15.4524	-44.08	94.6266	36.306	-26.853	100.343	16.0241	-52.1842	111.509	-12.2037	-36.5385	118.556	47.8478	-30.4716	121.076	35.0365	-61.9535	126.588	1.01995	-69.8253	141.635	51.1156	-29.3959	143.199	41.551	-57.6405	141.289	14.1461	-73.9452	163.385	41.5254	-20.485	172.439	38.0893	-43.8647	176.885	33.4701	-68.7294	140.611	43.497	24.2632	144.291	32.4564	56.1158	113.458	35.8949	36.7555	
303	2.525	96.1713	-2.86972	35.4219	93.9747	-15.6019	2.89241	89.4626	-20.5094	-25.0565	97.7247	-17.6744	-46.2034	96.9627	35.3451	-27.6753	97.5675	12.3698	-52.2412	111.532	-12.7361	-38.8299	119.809	49.3227	-34.1447	116.525	35.3015	-64.0712	124.038	6.5245	-75.1848	139.893	49.7831	-24.545	143.636	45.5509	-57.708	140.265	20.5495	-77.9832	166.285	42.8759	-21.5411	171.177	39.5216	-41.3976	173.213	39.9276	-69.9041	139.85	42.9255	22.2985	143.391	33.1978	52.8156	110.397	33.8019	37.7666	
304	2.53333	97.9312	-2.59737	34.9876	93.6519	-15.9793	4.73937	91.711	-18.743	-22.0265	98.8044	-17.277	-43.899	94.0345	31.7165	-32.0489	99.0527	12.1414	-52.4363	115.969	-14.6723	-35.2721	116.701	47.8448	-33.8203	119.171	38.1566	-62.8657	122.976	8.4635	-83.4649	137.545	50.1589	-29.0206	141.023	46.4367	-59.6896	141.935	28.9984	-79.9365	166.741	42.3952	-20.3166	171.159	40.4455	-39.0625	180.296	41.5863	-63.1645	140.694	43.2555	22.8295	143.567	35.1315	51.3278	108.83	34.8707	39.0889	
305	2.54167	97.4681	-3.31207	35.5204	93.2384	-18.5459	7.9729	91.8452	-18.7252	-23.1838	99.6636	-16.4005	-46.0703	96.2665	30.6051	-30.3464	99.2965	10.1385	-53.2946	115.726	-16.8689	-39.5855	117.145	46.35	-31.8848	117.236	37.401	-64.7655	122.625	16.8714	-86.626	139.113	50.211	-30.4136	140.977	49.3056	-54.9336	141.885	36.2137	-82.649	167.364	40.6651	-16.7288	175.023	42.6504	-42.335	177.863	46.7986	-61.351	141.632	42.3102	25.4335	145.779	36.3508	51.3796	109.12	32.7155	37.6749	
306	2.55	95.3558	-4.0006	33.792	91.3309	-19.8259	5.2487	88.2964	-22.6315	-23.9618	97.3984	-19.7835	-44.4736	92.8279	27.5931	-34.8475	102.69	8.39944	-54.4155	119.777	-17.3835	-41.6593	116.891	46.4194	-34.9071	115.424	38.5263	-66.2217	123.437	22.9219	-89.6585	138.716	49.3235	-28.6121	141.021	49.8429	-56.1689	146.149	42.3642	-85.3433	163.512	43.9171	-20.0429	173.261	44.0889	-36.9548	182.989	54.6663	-61.7413	138.579	42.2059	25.1836	145.084	34.1608	53.0579	112.057	33.6899	33.8301	
307	2.55833	96.9841	-5.21348	33.1962	93.8237	-18.8142	5.03987	90.0003	-22.2763	-21.0409	96.7056	-18.7609	-50.0724	97.9529	27.3622	-36.4708	101.129	2.29155	-55.612	116.689	-20.0455	-43.7816	113.981	45.4425	-36.8203	115.305	38.9584	-66.4571	120.552	26.1521	-91.0211	140.093	51.4594	-29.8783	138.871	50.6207	-56.2936	143.197	45.4324	-85.7851	166.609	44.4317	-18.7147	173.751	47.3089	-40.5101	180.043	57.2815	-60.5442	140.239	42.9224	21.5451	139.055	34.5151	48.2499	108.874	32.9842	34.0037	
308	2.56667	98.7652	-4.41507	33.0808	92.3935	-20.1578	8.44075	89.364	-22.9937	-19.8714	97.6821	-17.6703	-46.1135	97.2754	27.0981	-33.6932	106.079	4.35082	-55.3468	119.795	-17.6678	-45.8973	116.435	45.4798	-37.7499	117.203	40.688	-62.3131	121.578	26.1666	-91.2069	138.867	52.1809	-31.1467	142.383	52.4338	-55.0372	140.751	46.7179	-81.939	161.173	43.6697	-16.9196	172.775	47.5025	-37.5121	181.771	60.0075	-59.7387	138.826	43.1569	21.8292	140.776	36.4863	48.9097	108.641	30.5214	33.804	
309	2.575	98.7172	-3.37098	34.7669	89.6016	-15.9852	3.69255	86.766	-18.328	-24.6826	96.8944	-13.705	-44.3232	93.1015	26.8321	-33.7109	102.638	8.89886	-54.7498	118.842	-17.3191	-43.8405	116.603	46.892	-32.5066	117.567	41.0157	-65.3444	122.369	27.458	-90.1278	136.971	52.867	-31.2374	141.601	54.8265	-54.855	142.908	49.0632	-84.421	165.126	45.5622	-18.3482	171.652	48.464	-35.3031	180.569	60.2625	-55.109	137.716	43.506	26.5611	143.961	36.5865	52.5393	110.599	34.4221	34.6295	
